<?xml version="1.0" encoding="UTF-8" standalone="no"?>
<svg
   width="230px"
   height="180px"
   viewBox="0 0 230 180"
   version="1.1"
   id="svg1"
   xmlns="http://www.w3.org/2000/svg"
   xmlns:svg="http://www.w3.org/2000/svg">
  <path
     style="fill:#fff"
     d="m 19.392003,19.907532 q 0.768,-4.032 2.688,-7.104 1.92,-3.0719999 4.608,-4.9919999 2.688,-2.112 5.76,-3.072 3.264,-0.96 6.336,-0.96 3.072,0 5.76,0.96 2.688,0.96 4.608,3.072 2.112,1.92 2.88,4.9919999 0.96,3.072 0.192,7.104 l -5.568,31.488 h -9.024 l 5.568,-31.488 q 0.768,-3.648 -1.344,-5.376 -1.92,-1.728 -4.608,-1.728 -2.688,0 -5.376,1.728 -2.496,1.728 -3.264,5.376 l -7.488,42.432 q -0.384,2.88 1.152,4.992 1.728,2.112 4.8,2.112 6.72,0 10.752,4.8 4.032,4.608 2.88,11.52 l -7.488,42.239998 q -1.536,8.064 -7.296,12.288 -5.76,4.032 -11.904,4.032 -3.072,0 -5.9519997,-0.96 -2.688,-1.152 -4.8,-3.072 -1.92,-2.112 -2.88,-5.184 -0.768,-3.072 0,-7.104 l 6.528,-37.247998 H 16.128003 L 9.6000033,128.00353 q -0.576,3.648 1.3439997,5.376 1.92,1.728 4.608,1.728 2.688,0 5.376,-1.728 2.688,-1.728 3.264,-5.376 l 7.488,-42.239998 q 0.384,-3.072 -1.344,-5.184 -1.728,-2.112 -4.608,-2.112 -6.72,0 -10.944,-4.608 -4.032,-4.608 -2.88,-11.52 z M 38.016088,144.32353 q 0.192,-0.384 1.728,-6.528 1.728,-6.144 4.224,-15.936 2.688,-9.984 5.952,-22.463998 3.456,-12.48 6.912,-25.344 3.456,-13.056 6.72,-25.536 3.264,-12.48 5.76,-22.272 2.688,-9.792 4.224,-15.936 1.728,-6.1439999 1.92,-6.5279999 h 8.64 q -0.768,7.8719999 -1.728,19.5839999 -0.96,11.52 -2.304,24.96 -1.152,13.248 -2.496,27.456 -1.152,14.208 -2.304,27.263998 -0.96,12.864 -1.92,23.808 -0.96,10.752 -1.536,17.472 h -9.216 l 1.728,-18.816 h -12.096 l -4.992,18.816 z m 27.072,-27.84 5.184,-58.943998 -15.552,58.943998 z m 21.120012,11.52 21.888,-124.2239979 h 9.216 L 95.4241,128.00353 q -0.576,3.648 1.344,5.376 1.92,1.728 4.608,1.728 2.688,0 5.376,-1.728 2.688,-1.728 3.264,-5.376 L 131.9041,3.7795321 h 9.024 L 119.0401,128.00353 q -1.536,8.064 -7.296,12.288 -5.76,4.032 -11.904,4.032 -3.072,0 -5.952,-0.96 -2.688,-1.152 -4.8,-3.072 -1.92,-2.112 -2.88,-5.184 -0.768,-3.072 0,-7.104 z m 77.18417,0 q -1.536,8.064 -7.296,12.288 -5.76,4.032 -11.904,4.032 -3.072,0 -5.952,-0.96 -2.688,-1.152 -4.8,-3.072 -1.92,-2.112 -2.88,-5.184 -0.768,-3.072 0,-7.104 l 19.008,-108.095998 q 0.768,-4.032 2.688,-7.104 1.92,-3.0719999 4.608,-4.9919999 2.688,-2.112 5.76,-3.072 3.264,-0.96 6.336,-0.96 3.072,0 5.76,0.96 2.688,0.96 4.608,3.072 2.112,1.92 2.88,4.9919999 0.96,3.072 0.192,7.104 l -3.264,18.432 h -9.024 l 3.264,-18.432 q 0.768,-3.648 -1.344,-5.376 -1.92,-1.728 -4.608,-1.728 -2.88,0 -5.568,1.728 -2.496,1.728 -3.264,5.376 l -19.008,108.095998 q -0.576,3.648 1.344,5.376 1.92,1.728 4.8,1.728 2.688,0 5.376,-1.728 2.688,-1.728 3.264,-5.376 l 3.264,-18.24 h 9.024 z m 66.24018,-124.2239979 -1.536,9.0239999 h -23.808 l -9.984,56.64 h 8.448 l -1.728,9.024 h -8.448 l -9.984,56.831998 h 23.808 l -1.536,9.024 h -32.832 l 24.768,-140.5439979 z"
     aria-label="Sauce" />
  <rect
     style="fill:#fff"
     id="rect1"
     width="230"
     height="25"
     x="0"
     y="158" />
</svg>
