<?xml version="1.0" encoding="UTF-8"?>
<!-- Generated by Pixelmator Pro 3.6.16 -->
<svg width="1080" height="1080" viewBox="0 0 1080 1080" xmlns="http://www.w3.org/2000/svg">
    <g id="Path-1">
        <path id="path1" fill="#ffffff" stroke="none" d="M 1080 540 C 1080 838.233765 838.233765 1080 540 1080 C 241.766235 1080 0 838.233765 0 540 C 0 241.766235 241.766235 0 540 0 C 838.233765 0 1080 241.766235 1080 540 Z"/>
        <path id="path2" fill="#673ab7" stroke="none" d="M 540 1080 C 838.233765 1080 1080 838.233765 1080 540 C 1080 241.766235 838.233765 0 540 0 C 241.766235 0 0 241.766235 0 540 C 0 838.233765 241.766235 1080 540 1080 Z M 1020 540 C 1020 805.09668 805.09668 1020 540 1020 C 274.90332 1020 60 805.09668 60 540 C 60 274.90332 274.90332 60 540 60 C 805.09668 60 1020 274.90332 1020 540 Z"/>
    </g>
    <path id="Path" fill="#512da8" fill-rule="evenodd" stroke="none" d="M 344.808502 735 L 248 735 L 598 265 L 948 735 L 851.191467 735 L 598 395 L 344.808502 735 Z"/>
    <path id="Path-copy" fill="#673ab7" fill-rule="evenodd" stroke="none" d="M 249.808502 735 L 153 735 L 503 265 L 853 735 L 756.191467 735 L 503 395 L 249.808502 735 Z"/>
</svg>
